<?xml version="1.0" encoding="UTF-8"?>
<svg width="128px" height="128px" viewBox="0 0 128 128" version="1.1" xmlns="http://www.w3.org/2000/svg" xmlns:xlink="http://www.w3.org/1999/xlink">
    <title>3022091@1.5x</title>
    <g id="map" stroke="none" stroke-width="1" fill="none" fill-rule="evenodd">
        <g id="登录-错误" transform="translate(-657.000000, -225.000000)" fill-rule="nonzero">
            <g id="Group-3" transform="translate(503.000000, 225.000000)">
                <g id="3022091" transform="translate(154.000000, 0.000000)">
                    <path d="M128,128 L102.1775,128 L98.4275,124.25 L94.6775,128 L33.3225,128 L29.5725,124.25 L25.8225,128 L0,128 C0,117.1775 7.175,107.665 17.5825,104.69 L28.5475,101.5575 L64,101.5225 L99.2125,101.4875 L110.4175,104.69 C115.62,106.1775 120.0175,109.3 123.1125,113.4025 C126.205,117.505 128,122.59 128,128 L128,128 Z" id="Path" fill="#F074C5"></path>
                    <path d="M128,128 L102.1775,128 L98.4275,124.25 L94.6775,128 L64,128 L64,101.5225 L99.2125,101.4875 L110.4175,104.69 C115.62,106.1775 120.0175,109.3 123.1125,113.4025 C126.205,117.505 128,122.59 128,128 L128,128 Z" id="Path" fill="#F5169C"></path>
                    <path d="M99.2125,101.4875 C89.135,110.445 76.5725,114.94 64,114.977734 C51.3525,115.015 38.695,110.5425 28.5475,101.5575 L45.715,96.6525 L49.965,90.9975 L78.035,90.9975 L82.285,96.6525 L99.2125,101.4875 Z" id="Path" fill="#FEBDA6"></path>
                    <path d="M99.2125,101.4875 C89.135,110.445 76.5725,114.94 64,114.9775 L64,90.9975 L78.035,90.9975 L82.285,96.6525 L99.2125,101.4875 Z" id="Path" fill="#FFAC94"></path>
                    <polygon id="Path" fill="#F5169C" points="25.8215 117.33325 33.3215 117.33325 33.3215 128 25.8215 128"></polygon>
                    <polygon id="Path" fill="#B31072" points="94.6785 117.33325 102.1785 117.33325 102.1785 128 94.6785 128"></polygon>
                    <path d="M9.31,48.77825 L9.31,41.27825 C23.80475,41.27825 29.6985,31.87525 29.94225,31.475 L36.3905,35.305 C36.06625,35.855 28.2355,48.77825 9.31,48.77825 Z" id="Path" fill="#F074C5"></path>
                    <path d="M118.6905,48.77375 C99.765,48.77375 91.93425,35.85075 91.61,35.3005 L98.05825,31.4705 C98.302,31.87075 104.1955,41.27375 118.6905,41.27375 L118.6905,48.77375 Z" id="Path" fill="#F5169C"></path>
                    <path d="M30.447,31.401 C25.61125,32.1775 20.484,30.70175 16.756,26.97375 C10.5855,20.80325 10.5855,10.7985 16.756,4.628 C22.9265,-1.5425 32.93125,-1.5425 39.10175,4.628 C40.25875,5.785 41.19875,7.07675 41.922,8.45275 L30.447,31.401 Z" id="Path" fill="#363331"></path>
                    <path d="M97.55275,31.40075 C102.38875,32.17725 107.516,30.7015 111.244,26.9735 C117.4145,20.803 117.4145,10.79825 111.244,4.62775 C105.0735,-1.54275 95.06875,-1.54275 88.89825,4.62775 C87.7275,5.7985 86.77875,7.10725 86.05225,8.50175 L97.55275,31.40075 Z" id="Path" fill="#292725"></path>
                    <path d="M98.165,34.165 L98.165,52.45 L29.835,52.45 L29.835,34.165 C29.835,15.295 45.1325,7.10542736e-15 64,7.10542736e-15 C82.8675,7.10542736e-15 98.165,15.295 98.165,34.165 L98.165,34.165 Z" id="Path" fill="#5C5655"></path>
                    <path d="M98.165,34.165 L98.165,52.45 L64,52.45 L64,0 C82.8675,0 98.165,15.295 98.165,34.165 L98.165,34.165 Z" id="Path" fill="#363331"></path>
                    <path d="M36.58625,48.27975 L31.5155,48.27975 C25.0945,48.27975 19.889,53.485 19.889,59.90625 C19.889,66.32725 25.09425,71.53275 31.5155,71.53275 L41.08075,71.53275 L36.58625,48.27975 Z" id="Path" fill="#FEBDA6"></path>
                    <path d="M91.409,48.27975 L96.47975,48.27975 C102.901,48.27975 108.10625,53.485 108.10625,59.90625 C108.10625,66.32725 102.901,71.53275 96.47975,71.53275 L86.9185,71.53275 L91.409,48.27975 Z" id="Path" fill="#FFAC94"></path>
                    <path d="M91.41,48.28 L91.41,66.03 C91.41,67.91 91.2425,69.75 90.92,71.5325 L64,75.535 L37.08,71.5325 C36.7575,69.75 36.59,67.91 36.59,66.03 L36.59,48.28 C51.7275,48.28 64,36.0075 64,20.8725 C64,36.0075 76.27,48.28 91.4075,48.28 L91.41,48.28 Z" id="Path" fill="#FFCDC0"></path>
                    <path d="M91.41,48.28 L91.41,66.03 C91.41,67.91 91.2425,69.75 90.92,71.5325 L64,75.535 L64,20.8725 C64,36.0075 76.27,48.28 91.4075,48.28 L91.41,48.28 Z" id="Path" fill="#FEBDA6"></path>
                    <path d="M64,95.205 C50.63,95.205 39.495,85.015 37.08,71.5325 L49.955,71.5325 C53.12,71.5325 56.1775,70.4025 58.5825,68.3475 L64,63.7175 L69.4175,80.4785 C71.8225,82.5335 71.57,95.205 64,95.205 Z" id="Path" fill="#EDF9FF"></path>
                    <path d="M90.92,71.5325 C89.875,77.3825 87.185,82.6125 83.3825,86.66 C78.42,91.94 71.57,95.205 64,95.205 L64,63.7175 L69.4175,68.3475 C71.8225,70.4025 74.88,71.5325 78.045,71.5325 L90.92,71.5325 Z" id="Path" fill="#C0E1F0"></path>
                </g>
            </g>
        </g>
    </g>
</svg>